<?xml version="1.0" encoding="UTF-8"?>
<svg id="Layer_1" data-name="Layer 1" xmlns="http://www.w3.org/2000/svg" viewBox="0 0 512 512">
  <defs>
    <style>
      .cls-1 {
        fill: #fff;
      }

      .cls-2 {
        fill: #59a1e5;
      }
    </style>
  </defs>
  <rect class="cls-2" width="512" height="512" rx="76.41" ry="76.41"/>
  <path class="cls-1" d="M256,346.53c-1.34,0-2.59-.52-3.54-1.46l-78.35-78.35c-.98-.98-2.26-1.46-3.54-1.46s-2.56.49-3.54,1.46l-36.96,36.96c-.94.94-2.2,1.46-3.54,1.46s-2.59-.52-3.54-1.46l-44.13-44.13c-.94-.95-1.46-2.2-1.46-3.54s.52-2.59,1.47-3.54l44.13-44.13c.94-.94,2.2-1.46,3.54-1.46s2.59.52,3.54,1.46l36.96,36.96c.98.98,2.26,1.46,3.54,1.46s2.56-.49,3.54-1.46l78.35-78.35c.94-.94,2.2-1.46,3.54-1.46s2.59.52,3.54,1.46l78.35,78.35c.98.98,2.26,1.46,3.54,1.46s2.56-.49,3.54-1.46l36.96-36.96c.94-.94,2.2-1.46,3.54-1.46s2.59.52,3.54,1.46l44.13,44.13c.94.95,1.46,2.2,1.46,3.54s-.52,2.59-1.47,3.54l-44.13,44.13c-.94.94-2.2,1.46-3.54,1.46s-2.59-.52-3.54-1.46l-36.96-36.96c-.98-.98-2.26-1.46-3.54-1.46s-2.56.49-3.54,1.46l-78.35,78.35c-.94.94-2.2,1.46-3.54,1.46Z"/>
</svg>