<?xml version="1.0" encoding="UTF-8"?>
<svg id="Layer_1" data-name="Layer 1" xmlns="http://www.w3.org/2000/svg" viewBox="0 0 512 512">
  <defs>
    <style>
      .cls-1 {
        fill: #010101;
      }
    </style>
  </defs>
  <path class="cls-1" d="M256,347.2c-1.34,0-2.59-.52-3.54-1.46l-79.02-79.02c-.94-.94-2.21-1.46-3.54-1.46s-2.6.53-3.54,1.46l-37.3,37.3c-.94.94-2.2,1.46-3.54,1.46s-2.6-.53-3.54-1.46l-44.48-44.48c-1.95-1.95-1.95-5.12,0-7.07l44.48-44.48c.94-.94,2.2-1.46,3.54-1.46s2.59.52,3.54,1.46l37.3,37.3c.98.98,2.26,1.46,3.54,1.46s2.56-.49,3.54-1.46l79.02-79.02c.94-.94,2.2-1.46,3.54-1.46s2.59.52,3.54,1.46l79.02,79.02c.98.98,2.26,1.46,3.54,1.46s2.56-.49,3.54-1.46l37.3-37.3c.94-.94,2.2-1.46,3.54-1.46s2.59.52,3.54,1.46l44.48,44.48c1.95,1.95,1.95,5.12,0,7.07l-44.48,44.48c-.93.93-2.22,1.46-3.54,1.46s-2.59-.52-3.54-1.46l-37.3-37.3c-.94-.94-2.21-1.46-3.54-1.46s-2.6.53-3.54,1.46l-79.02,79.02c-.94.94-2.2,1.46-3.54,1.46Z"/>
</svg>