<?xml version="1.0" encoding="UTF-8"?>
<svg id="Layer_1" data-name="Layer 1" xmlns="http://www.w3.org/2000/svg" viewBox="0 0 512 512">
  <defs>
    <style>
      .cls-1 {
        fill: #010101;
      }

      .cls-2 {
        fill: #fff;
      }
    </style>
  </defs>
  <rect class="cls-1" width="512" height="512"/>
  <path class="cls-2" d="M256,346.16c-1.34,0-2.59-.52-3.54-1.46l-77.98-77.98c-.98-.98-2.26-1.46-3.54-1.46s-2.56.49-3.54,1.46l-36.77,36.77c-.94.94-2.2,1.46-3.54,1.46s-2.59-.52-3.54-1.46l-43.94-43.94c-.94-.95-1.46-2.2-1.46-3.54s.52-2.59,1.47-3.54l43.94-43.94c.94-.94,2.2-1.46,3.54-1.46s2.59.52,3.54,1.46l36.77,36.77c.98.98,2.26,1.46,3.54,1.46s2.56-.49,3.54-1.46l77.99-77.99c.94-.94,2.2-1.46,3.54-1.46s2.59.52,3.54,1.46l77.98,77.98c.98.98,2.26,1.46,3.54,1.46s2.56-.49,3.54-1.46l36.77-36.77c.94-.94,2.2-1.46,3.54-1.46s2.59.52,3.54,1.46l43.94,43.94c.94.95,1.46,2.2,1.46,3.54s-.52,2.59-1.47,3.54l-43.94,43.94c-.94.94-2.2,1.46-3.54,1.46s-2.59-.52-3.54-1.46l-36.77-36.77c-.98-.98-2.26-1.46-3.54-1.46s-2.56.49-3.54,1.46l-77.99,77.99c-.94.94-2.2,1.46-3.54,1.46Z"/>
</svg>