<?xml version="1.0" encoding="UTF-8"?>
<svg id="Layer_1" data-name="Layer 1" xmlns="http://www.w3.org/2000/svg" viewBox="0 0 512 512">
  <defs>
    <style>
      .cls-1 {
        fill: #fff;
      }

      .cls-2 {
        fill: #59a1e5;
      }
    </style>
  </defs>
  <rect class="cls-2" width="512" height="512" rx="76.41" ry="76.41"/>
  <path class="cls-1" d="M431.89,247.28l-38.21-38.21c-4.82-4.82-12.62-4.82-17.44,0l-18.92,18.92c-4.82,4.82-12.62,4.82-17.44,0l-75.16-75.16c-4.82-4.82-12.62-4.82-17.44,0l-75.16,75.16c-4.82,4.82-12.62,4.82-17.44,0l-18.92-18.92c-4.82-4.82-12.62-4.82-17.44,0l-38.21,38.21c-4.82,4.82-4.82,12.62,0,17.44l38.21,38.21c4.82,4.82,12.62,4.82,17.44,0l18.92-18.92c4.82-4.82,12.62-4.82,17.44,0l75.16,75.16c4.82,4.82,12.62,4.82,17.44,0l75.16-75.16c4.82-4.82,12.62-4.82,17.44,0l18.92,18.92c4.82,4.82,12.62,4.82,17.44,0l38.21-38.21c4.82-4.82,4.82-12.62,0-17.44Z"/>
</svg>