<?xml version="1.0" encoding="UTF-8"?>
<svg id="Layer_1" data-name="Layer 1" xmlns="http://www.w3.org/2000/svg" viewBox="0 0 512 512">
  <defs>
    <style>
      .cls-1 {
        fill: #f2f2f2;
      }
    </style>
  </defs>
  <path class="cls-1" d="M256,512c-110.88,0-201.09-90.21-201.09-201.09,0-40.45,5.17-80.09,15.37-117.83,9.92-36.69,24.1-69.86,42.15-98.58,18.36-29.21,39.75-52.25,63.58-68.49C201.33,8.75,228.25,0,256,0s54.67,8.75,80,26.02c23.83,16.24,45.22,39.28,63.58,68.49,18.05,28.72,32.23,61.88,42.15,98.58,10.2,37.73,15.37,77.37,15.37,117.83,0,110.88-90.21,201.09-201.09,201.09ZM76.11,276.11c-.89,11.43-1.35,23.06-1.35,34.8,0,99.94,81.31,181.25,181.25,181.25s181.25-81.31,181.25-181.25c0-11.75-.46-23.37-1.35-34.8l-31.32,31.32c-4.27,4.27-9.94,6.62-15.98,6.62s-11.71-2.35-15.98-6.62l-19.45-19.45c-1.07-1.07-2.82-1.07-3.9,0l-77.28,77.28c-4.27,4.27-9.94,6.62-15.98,6.62s-11.71-2.35-15.98-6.62l-77.28-77.28c-1.07-1.07-2.82-1.07-3.9,0l-19.45,19.45c-4.27,4.27-9.94,6.62-15.98,6.62s-11.71-2.35-15.98-6.62l-31.32-31.32ZM160.79,267.33c5.79,0,11.57,2.2,15.98,6.61l77.28,77.28c.67.67,1.43.81,1.95.81s1.28-.14,1.95-.81l77.28-77.28c8.81-8.81,23.15-8.81,31.96,0l19.45,19.45c.67.67,1.43.81,1.95.81s1.28-.14,1.95-.81h0s39.29-39.29,39.29-39.29c.67-.67.81-1.43.81-1.95s-.14-1.28-.81-1.95l-39.29-39.29c-.67-.67-1.43-.81-1.95-.81s-1.28.14-1.95.81l-19.45,19.45c-8.81,8.81-23.15,8.81-31.96,0l-77.28-77.28c-1.07-1.07-2.82-1.07-3.9,0l-77.28,77.28c-8.81,8.81-23.15,8.81-31.96,0l-19.45-19.45c-.67-.67-1.43-.81-1.95-.81s-1.28.14-1.95.81l-39.29,39.29c-.67.67-.81,1.43-.81,1.95s.14,1.28.81,1.95l39.29,39.29c.67.67,1.43.81,1.95.81s1.28-.14,1.95-.81l19.45-19.45c4.41-4.41,10.19-6.61,15.98-6.61ZM388.59,190.26c6.04,0,11.71,2.35,15.98,6.62l23.28,23.28c-24.37-114.95-93.23-200.32-171.85-200.32S108.52,105.21,84.15,220.16l23.28-23.28c4.27-4.27,9.94-6.62,15.98-6.62s11.71,2.35,15.98,6.62l19.45,19.45c1.07,1.07,2.82,1.07,3.9,0l77.28-77.28c8.81-8.81,23.15-8.81,31.96,0l77.28,77.28c1.07,1.07,2.82,1.07,3.9,0l19.45-19.45c4.27-4.27,9.94-6.62,15.98-6.62Z"/>
</svg>