<?xml version="1.0" encoding="UTF-8"?>
<svg id="Layer_1" data-name="Layer 1" xmlns="http://www.w3.org/2000/svg" viewBox="0 0 512 512">
  <defs>
    <style>
      .cls-1 {
        fill: #59a1e5;
      }
    </style>
  </defs>
  <path class="cls-1" d="M256,346.45c-1.34,0-2.59-.52-3.54-1.46l-78.28-78.28c-.94-.94-2.21-1.46-3.54-1.46s-2.6.53-3.54,1.46l-36.92,36.92c-.94.94-2.2,1.46-3.54,1.46s-2.59-.52-3.54-1.46l-44.09-44.09c-1.95-1.95-1.95-5.12,0-7.07l44.09-44.09c.94-.94,2.2-1.46,3.54-1.46s2.59.52,3.54,1.46l36.92,36.92c.94.94,2.21,1.46,3.54,1.46s2.6-.53,3.54-1.46l78.28-78.28c.94-.94,2.2-1.46,3.54-1.46s2.59.52,3.54,1.46l78.28,78.28c.94.94,2.21,1.46,3.54,1.46s2.6-.53,3.54-1.46l36.92-36.92c.94-.94,2.2-1.46,3.54-1.46s2.59.52,3.54,1.46l44.09,44.09c1.95,1.95,1.95,5.12,0,7.07l-44.09,44.09c-.94.94-2.2,1.46-3.54,1.46s-2.59-.52-3.54-1.46l-36.92-36.92c-.94-.94-2.21-1.46-3.54-1.46s-2.6.53-3.54,1.46l-78.28,78.28c-.94.94-2.2,1.46-3.54,1.46Z"/>
</svg>