<?xml version="1.0" encoding="UTF-8"?>
<svg id="Layer_1" data-name="Layer 1" xmlns="http://www.w3.org/2000/svg" viewBox="0 0 512 512">
  <defs>
    <style>
      .cls-1 {
        fill: #fff;
      }

      .cls-2 {
        fill: #59a1e5;
      }
    </style>
  </defs>
  <rect class="cls-2" width="512" height="512"/>
  <path class="cls-1" d="M256,348.92c-1.34,0-2.59-.52-3.54-1.46l-80.74-80.73c-.98-.98-2.26-1.46-3.54-1.46s-2.56.49-3.54,1.46l-38.18,38.18c-.94.94-2.2,1.46-3.54,1.46s-2.59-.52-3.54-1.46l-45.36-45.36c-.94-.95-1.46-2.2-1.46-3.54s.52-2.59,1.47-3.54l45.36-45.36c.94-.94,2.2-1.46,3.54-1.46s2.59.52,3.54,1.46l38.18,38.18c.98.98,2.26,1.46,3.54,1.46s2.56-.49,3.54-1.46l80.74-80.74c.94-.94,2.2-1.46,3.54-1.46s2.59.52,3.54,1.46l80.74,80.73c.98.98,2.26,1.46,3.54,1.46s2.56-.49,3.54-1.46l38.18-38.18c.94-.94,2.2-1.46,3.54-1.46s2.59.52,3.54,1.46l45.36,45.36c.94.95,1.46,2.2,1.46,3.54s-.52,2.59-1.47,3.54l-45.36,45.36c-.94.94-2.2,1.46-3.54,1.46s-2.59-.52-3.54-1.46l-38.18-38.18c-.98-.98-2.26-1.46-3.54-1.46s-2.56.49-3.54,1.46l-80.74,80.74c-.94.94-2.2,1.46-3.54,1.46Z"/>
</svg>